<svg id="Layer_1" data-name="Layer 1" xmlns="http://www.w3.org/2000/svg" viewBox="0 0 601.1 170.15">
  <g>
    <g>
      <path d="M149.7,15.4h28.46c14,0,23.51,7,23.51,19.41a16.74,16.74,0,0,1-9.49,14.77c7.33,2.69,13,8.84,13,19.08,0,13.91-10,22.21-25.76,22.21H149.7Zm27.71,30.08c8.08,0,12.18-3.45,12.18-9.81s-4.1-9.92-12.29-9.92H162.1V45.48ZM178,79.76c10.13,0,15-4,15-11.64s-4.85-11.75-15-11.75H162.1V79.76Z" transform="translate(-4.62 -14.54)" style="fill: #362520"/>
      <path d="M225.81,14.54v13H212.88v-13Zm-12.39,22h11.75V90.87H213.42Z" transform="translate(-4.62 -14.54)" style="fill: #362520"/>
      <path d="M233.47,63.7c0-16.28,11.64-28,28-28s28,11.75,28,28-11.75,28-28,28S233.47,80,233.47,63.7Zm44.2,0c0-10.46-6.58-17.79-16.17-17.79s-16.17,7.33-16.17,17.79,6.46,17.79,16.17,17.79S277.67,74.16,277.67,63.7Z" transform="translate(-4.62 -14.54)" style="fill: #362520"/>
      <path d="M294.81,63.7c0-16.71,11-28,27.28-28,13.36,0,23,7.11,24.79,18.33l-11.43,2.26c-1.07-6.15-6.14-10.35-13-10.35-9.38,0-15.42,7-15.42,17.79s6.15,17.79,15.42,17.79c6.9,0,11.75-3.78,13-10.14L347,73.62c-2.27,11.32-11.64,18.11-24.9,18.11C305.81,91.73,294.81,80.41,294.81,63.7Z" transform="translate(-4.62 -14.54)" style="fill: #362520"/>
      <path d="M352.06,63.7c0-16.28,11.64-28,28-28s28,11.75,28,28-11.75,28-28,28S352.06,80,352.06,63.7Zm44.2,0c0-10.46-6.58-17.79-16.17-17.79s-16.18,7.33-16.18,17.79,6.47,17.79,16.18,17.79S396.26,74.16,396.26,63.7Z" transform="translate(-4.62 -14.54)" style="fill: #362520"/>
      <path d="M416.31,36.53h11.75v9.16c2.91-5.92,8.09-10,16-10,8.73,0,15,3.77,17.25,10.78a19.68,19.68,0,0,1,17.89-10.78c11.65,0,19.19,7.54,19.19,18.54V90.87H486.6V57.12c0-6.79-3.88-11.32-10.78-11.32-8.09,0-12.72,7.12-12.72,17.58V90.87H451.46V57.12c0-6.79-3.78-11.32-10.68-11.32-8.08,0-12.72,7.23-12.72,17.58V90.87H416.31Z" transform="translate(-4.62 -14.54)" style="fill: #362520"/>
    </g>
    <g>
      <path d="M149.05,146c0-25.76,17.79-38.59,37.09-38.59,17.46,0,30.07,9.59,32.77,24.58l-12.51,2.69c-2.15-10.13-9.81-16.28-20.26-16.28-13.8,0-24.26,9.71-24.26,27.6s10.35,27.49,24.26,27.49c10.56,0,17.68-5.71,20.05-15.2L218.8,161c-3.66,14.55-15.74,23.61-32.66,23.61C166.62,184.64,149.05,171.81,149.05,146Z" transform="translate(-4.62 -14.54)" style="fill: #362520"/>
      <path d="M278.31,183.78H266.56v-6.9c-2.59,4.52-9.16,7.76-16.39,7.76-16.6,0-26-11.65-26-28s9.38-28,25.77-28c7,0,13.37,3.12,16.6,7.65v-6.79h11.75Zm-10.89-27.17c0-10.78-6.25-17.79-15.74-17.79s-15.74,7-15.74,17.79,6.26,17.79,15.74,17.79S267.42,167.28,267.42,156.61Z" transform="translate(-4.62 -14.54)" style="fill: #362520"/>
      <path d="M289.52,107.45h11.75v76.33H289.52Z" transform="translate(-4.62 -14.54)" style="fill: #362520"/>
      <path d="M324.88,107.45v13H312v-13Zm-12.4,22h11.76v54.34H312.48Z" transform="translate(-4.62 -14.54)" style="fill: #362520"/>
      <path d="M340.51,139.47h-8.94v-10h8.94V124.8c0-12.29,7.55-19.08,17.9-19.08a25.83,25.83,0,0,1,7.76,1.19l-.64,9.92a15.15,15.15,0,0,0-5.61-1.08c-4.64,0-7.66,3.45-7.66,8.84v4.85h13.27v10H352.26v44.31H340.51Z" transform="translate(-4.62 -14.54)" style="fill: #362520"/>
      <path d="M366.93,156.61c0-16.28,11.64-28,28-28s28,11.75,28,28-11.75,28-28,28S366.93,172.89,366.93,156.61Zm44.2,0c0-10.46-6.58-17.79-16.17-17.79s-16.17,7.33-16.17,17.79S385.26,174.4,395,174.4,411.13,167.06,411.13,156.61Z" transform="translate(-4.62 -14.54)" style="fill: #362520"/>
      <path d="M457.92,139.57c-8,0-15,7.12-15,23.94v20.27H431.18V129.44h11.75v10.35c2.91-6.47,10-11.21,16.61-11.21a17.62,17.62,0,0,1,6,1l-.64,11.32A18,18,0,0,0,457.92,139.57Z" transform="translate(-4.62 -14.54)" style="fill: #362520"/>
      <path d="M471.18,129.44h11.75v9.06a20.74,20.74,0,0,1,17.9-9.92c11.53,0,19.62,7.65,19.62,19.4v35.8H508.7v-33.1c0-6.79-4.21-11.54-11.11-11.54-9.16,0-14.66,7.76-14.66,20.81v23.83H471.18Z" transform="translate(-4.62 -14.54)" style="fill: #362520"/>
      <path d="M544,107.45v13H531v-13Zm-12.4,22H543.3v54.34H531.55Z" transform="translate(-4.62 -14.54)" style="fill: #362520"/>
      <path d="M605.72,183.78H594v-6.9c-2.59,4.52-9.16,7.76-16.39,7.76-16.6,0-26-11.65-26-28s9.38-28,25.77-28c7,0,13.37,3.12,16.6,7.65v-6.79h11.75Zm-10.89-27.17c0-10.78-6.25-17.79-15.74-17.79s-15.74,7-15.74,17.79,6.26,17.79,15.74,17.79S594.83,167.28,594.83,156.61Z" transform="translate(-4.62 -14.54)" style="fill: #362520"/>
    </g>
    <g>
      <polygon points="99.75 48.74 0 80.9 96.07 39.02 99.75 48.74" style="fill: #faa61a"/>
      <path d="M4.62,95.43" transform="translate(-4.62 -14.54)" style="fill: #faa61a"/>
      <polygon points="47.38 164.02 0 80.9 56.11 158.4 47.38 164.02" style="fill: #faa61a"/>
      <polygon points="56.76 5.84 0 80.9 48.13 0.04 56.76 5.84" style="fill: #faa61a"/>
      <polygon points="24.38 12.24 0 80.9 14.36 9.47 24.38 12.24" style="fill: #faa61a"/>
      <polygon points="92.52 14.46 0 80.9 86.08 6.3 92.52 14.46" style="fill: #faa61a"/>
      <polygon points="87.42 170.15 0 80.9 94.54 162.58 87.42 170.15" style="fill: #faa61a"/>
      <polygon points="116.23 151.61 0 80.9 121.29 142.53 116.23 151.61" style="fill: #faa61a"/>
      <polygon points="113.52 114.83 0 80.9 116.06 104.75 113.52 114.83" style="fill: #faa61a"/>
      <polygon points="93.86 81.52 0 80.9 93.35 71.14 93.86 81.52" style="fill: #faa61a"/>
    </g>
  </g>
</svg>